<svg xmlns="http://www.w3.org/2000/svg" viewBox="0 0 512 512" style="height: 512px; width: 512px;"><defs><filter id="shadow-1" height="300%" width="300%" x="-100%" y="-100%"><feFlood flood-color="rgba(9, 9, 9, 1)" result="flood"></feFlood><feComposite in="flood" in2="SourceGraphic" operator="out" result="composite"></feComposite><feGaussianBlur in="composite" stdDeviation="15" result="blur"></feGaussianBlur><feOffset dx="0" dy="0" result="offset"></feOffset><feComposite in2="SourceGraphic" in="offset" operator="atop"></feComposite></filter><filter id="shadow-2" height="300%" width="300%" x="-100%" y="-100%"><feFlood flood-color="rgba(9, 9, 9, 1)" result="flood"></feFlood><feComposite in="flood" in2="SourceGraphic" operator="out" result="composite"></feComposite><feGaussianBlur in="composite" stdDeviation="15" result="blur"></feGaussianBlur><feOffset dx="0" dy="0" result="offset"></feOffset><feComposite in2="SourceGraphic" in="offset" operator="atop"></feComposite></filter><filter id="shadow-3" height="300%" width="300%" x="-100%" y="-100%"><feFlood flood-color="rgba(9, 9, 9, 1)" result="flood"></feFlood><feComposite in="flood" in2="SourceGraphic" operator="out" result="composite"></feComposite><feGaussianBlur in="composite" stdDeviation="15" result="blur"></feGaussianBlur><feOffset dx="0" dy="0" result="offset"></feOffset><feComposite in2="SourceGraphic" in="offset" operator="atop"></feComposite></filter><filter id="shadow-4" height="300%" width="300%" x="-100%" y="-100%"><feFlood flood-color="rgba(9, 9, 9, 1)" result="flood"></feFlood><feComposite in="flood" in2="SourceGraphic" operator="out" result="composite"></feComposite><feGaussianBlur in="composite" stdDeviation="15" result="blur"></feGaussianBlur><feOffset dx="0" dy="0" result="offset"></feOffset><feComposite in2="SourceGraphic" in="offset" operator="atop"></feComposite></filter><filter id="shadow-5" height="300%" width="300%" x="-100%" y="-100%"><feFlood flood-color="rgba(9, 9, 9, 1)" result="flood"></feFlood><feComposite in="flood" in2="SourceGraphic" operator="out" result="composite"></feComposite><feGaussianBlur in="composite" stdDeviation="15" result="blur"></feGaussianBlur><feOffset dx="0" dy="0" result="offset"></feOffset><feComposite in2="SourceGraphic" in="offset" operator="atop"></feComposite></filter><filter id="shadow-6" height="300%" width="300%" x="-100%" y="-100%"><feFlood flood-color="rgba(9, 9, 9, 1)" result="flood"></feFlood><feComposite in="flood" in2="SourceGraphic" operator="out" result="composite"></feComposite><feGaussianBlur in="composite" stdDeviation="15" result="blur"></feGaussianBlur><feOffset dx="0" dy="0" result="offset"></feOffset><feComposite in2="SourceGraphic" in="offset" operator="atop"></feComposite></filter><filter id="shadow-7" height="300%" width="300%" x="-100%" y="-100%"><feFlood flood-color="rgba(9, 9, 9, 1)" result="flood"></feFlood><feComposite in="flood" in2="SourceGraphic" operator="out" result="composite"></feComposite><feGaussianBlur in="composite" stdDeviation="15" result="blur"></feGaussianBlur><feOffset dx="0" dy="0" result="offset"></feOffset><feComposite in2="SourceGraphic" in="offset" operator="atop"></feComposite></filter><filter id="shadow-8" height="300%" width="300%" x="-100%" y="-100%"><feFlood flood-color="rgba(9, 9, 9, 1)" result="flood"></feFlood><feComposite in="flood" in2="SourceGraphic" operator="out" result="composite"></feComposite><feGaussianBlur in="composite" stdDeviation="15" result="blur"></feGaussianBlur><feOffset dx="0" dy="0" result="offset"></feOffset><feComposite in2="SourceGraphic" in="offset" operator="atop"></feComposite></filter><filter id="shadow-9" height="300%" width="300%" x="-100%" y="-100%"><feFlood flood-color="rgba(9, 9, 9, 1)" result="flood"></feFlood><feComposite in="flood" in2="SourceGraphic" operator="out" result="composite"></feComposite><feGaussianBlur in="composite" stdDeviation="15" result="blur"></feGaussianBlur><feOffset dx="0" dy="0" result="offset"></feOffset><feComposite in2="SourceGraphic" in="offset" operator="atop"></feComposite></filter><filter id="shadow-10" height="300%" width="300%" x="-100%" y="-100%"><feFlood flood-color="rgba(9, 9, 9, 1)" result="flood"></feFlood><feComposite in="flood" in2="SourceGraphic" operator="out" result="composite"></feComposite><feGaussianBlur in="composite" stdDeviation="15" result="blur"></feGaussianBlur><feOffset dx="0" dy="0" result="offset"></feOffset><feComposite in2="SourceGraphic" in="offset" operator="atop"></feComposite></filter><linearGradient x1="0" x2="1" y1="0" y2="1" id="delapouite-sherlock-holmes-gradient-0"><stop offset="0%" stop-color="#1900ff" stop-opacity="1"></stop><stop offset="100%" stop-color="#000000" stop-opacity="1"></stop></linearGradient></defs><path d="M0 0h512v512H0z" fill="url(#pattern)"></path><svg><defs><linearGradient id="a" x1="240" y1="16" x2="240" y2="496" gradientUnits="userSpaceOnUse"><stop offset="0" stop-color="#764c1f"></stop><stop offset="1" stop-color="#613729"></stop></linearGradient><filter id="c" color-interpolation-filters="sRGB"><feFlood flood-opacity="1" flood-color="#7F5B2C" result="flood"></feFlood><feComposite in="flood" in2="SourceGraphic" operator="in" result="composite1"></feComposite><feGaussianBlur in="composite1" stdDeviation="2" result="blur"></feGaussianBlur><feOffset dy="2" result="offset"></feOffset><feComposite in="SourceGraphic" in2="offset" result="composite2"></feComposite></filter><filter id="d" color-interpolation-filters="sRGB"><feFlood flood-opacity=".408" flood-color="#805318" result="flood"></feFlood><feComposite in="flood" in2="SourceGraphic" operator="in" result="composite1"></feComposite><feGaussianBlur in="composite1" stdDeviation="2" result="blur"></feGaussianBlur><feOffset dy="2" result="offset"></feOffset><feComposite in="SourceGraphic" in2="offset" result="composite2"></feComposite></filter></defs><path color="#000" fill="url(#a)" d="M0 0h512v512H0z"></path><path d="M76.818 0c-3.43 2.298-7.162 4.426-11.644 6.031C51.56 10.908 23.283 20.82 13.133 30.71c-2.68 2.61-7.41 2.375-13.133.71v16.683c9.949-1.144 18.644-3.02 22.584-6.86 10.157-9.897 24.527-11.423 36.785-15.814C70.46 21.456 81.875 8.665 94.96 0h-18.14zm147.014 0c-8.668 5.488-34.103 20.479-53.904 20.484-24.18.007-38.751 26.486-57.37 33.155-13.613 4.876-23.98 15.137-34.13 25.027-10.15 9.89-62.951-.515-75.258 3.709A72.35 72.35 0 0 0 0 83.555v12.123c8.015-.723 15.542-1.995 21.68-4.102 13.687-4.697 56.04 7.522 66.197-2.375 10.157-9.897 30.498-25.472 42.756-29.863 17.283-6.191 15.34-31.363 39.297-31.37 23.957-.006 56.789-25.103 56.789-25.103 1.918.157 2.855-1.437 2.674-2.865h-5.561zm115.824 0C295.4 15.695 189.218 54.588 153.687 75.295c-17.8 10.374-31.05 25.737-47.949 34.217-18.553 9.31-47.219 9.73-73.535 10.408-11.882.306-23.017 1.19-32.203 4.256v52.033c8.406 4.62 18.763 9.39 24.896 11.863C43.5 196.091 52.43 205.511 70.5 208.31c10.86 1.702 27.696-6.355 44.133-3.676 32.873 5.357 72.455 16.853 98.812 21.734 47.646 8.823 61.514 17.1 110.19 22.654 38.966 4.448 113.085 15.642 151.82 4.657 9.46-2.683 20.878-10.256 30.207-17.155 2.27-1.678 4.4-3.315 6.338-4.837v-6.415a264.119 264.119 0 0 1-9.31 7.233c-9.143 6.76-44.096 10.925-52.127 13.203-37.097 10.52-54.356 4.592-93.704.102-48.028-5.482-94.796-20.376-142.855-29.276-26.44-4.896-65.677-16.392-98.568-21.752-16.446-2.68-31.303-.137-42.176-1.842-20.27-2.51-23.108-15.187-40.59-22.171-9.174-3.7-8.375-4.152-14.582-9.336-6.207-5.185-6.019-8.136-5.184-14.104 1.41-10.067 42.053-9.01 50.64-12.498 68.723-10.867 30.138-11.62 62.345-26.818 18.503-9.285 23.827-12.87 40.248-22.44C204.02 63.494 328.07 13.101 361.756 0h-22.1zm83.987 12.76c-.986.012-1.829.211-2.506.63-5.49 3.398 13.959 11.659 20.638 17.08 17.46 14.173 51.586 25.77 70.225 31.39V47.712c-12.713-3.405-29.604-8.135-40.207-11.975-15.726-5.695-38.619-23.094-48.15-22.978zm-77.547 15.459c-21.748-.988-185.131 99.599-206.442 117.302-11.477 9.535-53.943 12.16-65.558 23.74 16.008-2.816 47.006-3.749 59.636 2.135C174.906 190.58 295.25 220.71 368 233.242c14.999 2.584 16.918-12.063 27.045-15.37 29.293-11.826 43.591-7.637 73.266-12.05 13.372-1.988 30.699-6.518 43.689-10.207v-7.388c-8.257 1.354-19.053 2.966-30.52 4.207-34.681 3.751-45.885.702-76.376 10.492-16.652 5.346-42.436 18.694-43.118 18.422-60.148-24.075-194.835-51.195-178.425-79.496 7.408-12.778 93.857-61.286 163.748-94.522 7.306-3.474 14.092-4.828 20.59-4.887 16.604-.15 31.334 8.152 48.101 11.12 37.528 6.641 65.731 19.1 96 30.626v-7.603c-30.02-11.582-58.327-24.48-92.357-32.898-23.488-5.811-46.723-14.252-73.547-15.47zm18.974 29.308a92.299 92.299 0 0 0-8.795.493c-21.634 2.25-39.047 17.15-51.49 30.71-20.425 22.26-53.243 36.834-50.828 60.016 1.009 9.684 32.91 18.74 41.352 22.574 32.086 14.575 70.652 15.99 102.61 16.791 37.453.94 76.977-7.323 103.606-26.445 4.283-3.075 7.72-6.396 10.475-9.742v-12.34c-4.415 6.423-15.358 5.254-22.654 10.744-17.243 12.973-39.93 39.074-92.307 30.408-58.958-9.754-85.469-13.575-96.644-41.375-8.444-21.003 2.02-30.33 16.306-44.24 14.185-13.811 26.584-26.788 43.01-26.719 51.731.218 71.905 13.323 91.236 25.373 18.797 11.718 31.874 24.142 61.053 33.385v-7.101c-25.722-9.047-38.346-21.902-57.414-32.016-34.224-18.152-61.32-30.749-89.516-30.516zm14.686 38.682c-6.098-.071-12.402.239-18.758.713-14.42 1.076-22.12 14.462-18.963 26.69 4.944 19.14 28.07 31.36 56.975 21.841 27.54-9.07 62.041 28.435 65.933-7.797 1.322-12.307-31.43-13.853-40.033-24.58-10.425-13-26.862-16.653-45.154-16.867z" color="#000" overflow="visible" fill="#65391e" fill-rule="evenodd" enable-background="accumulate" filter="url(#c)"></path><path d="M20.945 223.97c-8.186-.038-15.767.227-20.945.46v18.224c12.826-.879 49.499-2.86 69.18 1.758 16.516 3.876 30.238 15.5 46.002 21.772 10.525 4.187 29.328 16.494 29.328 16.494s-28.898 15.816-44.076 22.135C73.072 316.202 24.314 331.529 0 338.972v18.843c56.485-12.61 110.677-55.15 158.727-64.943 57.647-10.63 117.17 4.927 175.584 9.832C384.254 306.9 470.978 317.308 512 322.348v-5.87c-11.825-4.283-25.751-8.95-35.469-10.964-54.979-11.399-112.017-8.162-167.855-14.047-46.118-4.861-93.26-5.394-138.01-17.557-22.115-6.01-45.881-19.472-63.209-27.04-20.387-8.906-41.286-17.65-63.21-21.42-6.231-1.072-14.9-1.44-23.302-1.48zm171.282 28.925c65.178 19.342 224.672 38.304 248.134 34.359L512 275.209v-14.164c-18.731 8.524-49.354 17.972-93.41 14.27-70.917-5.96-143.663-12.532-226.363-22.42zM0 258.02v17.926c18.076-.634 36.17-9.701 56.889 4.283C67.283 287.246 26.112 297.857 0 305.842v18.54c45.394-13.448 113.492-23.2 100.434-46.259C92.422 263.976 37.602 262.361 0 258.021zm154.406 52.446L0 367.783v9.787c8.073-2.5 34.178-10.586 51.27-15.869 18.96-5.86 37.109-15.94 56.888-17.558 15.387-1.259 48.975-23.573 46.248-33.676z" color="#000" overflow="visible" fill="#65391e" fill-rule="evenodd" enable-background="accumulate" filter="url(#d)"></path><path d="M238.45 325.217c-39.572.182-89.753 5.054-87.448 11.201 0 0 105.566-2.068 158.023 2.809 63.985 5.948 183.717 30.25 202.975 34.205v-7.854c-20.88-8.833-77.759-20.35-108.158-24.947-46.55-7.04-93.5-11.505-140.467-14.748-7.226-.5-15.794-.708-24.926-.666zm-56.546 32.27c-25.526.08-78.656 19.818-103.664 24.937-31.812 6.51-63.627 12.653-78.24 15.463v20.369c16.326-5.433 41.426-13.513 64.195-19.678 30.54-8.269 86.113-20.121 117.744-20.83 52.664-1.18 97.503 14.138 148.178 28.52 20.466 5.808 61.088 5.572 81.635 11.087 29.817 8.004 76.85-1.733 100.248-7.619v-19.373c-15.851 4.876-40.805 11.706-56.188 11.592-56.45-.419-100.561-9.306-156.519-16.758-35.347-4.707-81.73-27.823-117.389-27.71zm0 42.14c-25.526.08-50.843 5.417-75.851 10.535C75.727 416.37 23.757 431.552 0 438.652v20.588c23.656-9.46 65.932-25.864 92.006-32.924 30.54-8.269 61.778-16.148 93.41-16.857 52.664-1.18 105.944 6.688 156.62 21.07 20.465 5.809 37.747 20.471 58.294 25.987 30.423 8.166 85.419 11.559 111.67 12.765v-39.078c-15.851 2.528-40.805 6.06-56.188 5.945-56.45-.418-110.493-19.237-166.45-26.689-35.348-4.707-71.798-9.945-107.458-9.832zm-46.254 36.629c-12.022-.069-24.067.53-35.277 2.637C71.52 444.313 25.777 463.884 0 475.59v21.818c25.731-11.447 66.168-28.44 92.285-34.416 33.196-7.595 70.222-7.207 101.854-7.916 52.663-1.18 90.549 3.212 141.224 17.594 20.466 5.808 57.392 20.55 87.098 26.978 26.032 5.634 72.37 10.092 89.539 11.633v-34.36c-15.116.258-64.976.858-93.648-2.108-44.581-4.613-74.158-26.447-130.116-33.899-35.347-4.707-60.956-2.736-96.615-2.623-15.954.05-35.933-1.92-55.97-2.035z" color="#000" overflow="visible" fill="#5d351c" fill-rule="evenodd" enable-background="accumulate"></path><path d="M0 0v19.04c7.931 1.2 16.21 1.8 28.62-1.04 41.2-9.422 44.95-4.59 43.57 0 0 0-6.03 3.84-9.28 5.29-9.43 4.2-19.88 4.79-29.39 9.72-5.7 2.95-15.15 11.92-15.14 11.92 22.86-6.33 26.98-10.54 32.28-12.92 9.13-4.6 32.15-12.98 40.45-14.01 19.69-2.49 26.19 8.68 40.89 5.11 17.8-4.3 50.5-8.64 69.8-5.11L183 26.05s-16.4-.01-23.3 3.73c-5.9 3.14-10.8 9.94-13.4 14.65 0 0 9.1-6.81 14.4-8.94 7.7-3.17 24.5-5.46 24.5-5.46L215.7 18h99.9l-86.9 37.17c.1.15 4.4 1.33 5.8-.18L327.4 18h.9c25.1-11.156 54.5-8.926 80.4-2.04C424 20 437 34.3 449.2 40.46c6.3 3.2 20.4 6.33 20.4 6.33l-25.4-14.41L420 15.16c-.1-1.15 3.1-1.37 18.3 2.84 11.3 1.92 43.7 15.29 40.2 5.3-4.6-12.91 10-6.28 15.4-5.3 6.8 1.24 12.8 2.72 18.1 4.76V0H0zm366.6 40.5c-1.1 0-2.2.02-3.3.09-7.8.47-22 8.45-22 8.45l-15.3 8.4s28.9-9.33 43.2-10.03c14.9-.73 44.4 5.78 44.4 5.78-11.5-4.7-30.5-12.58-47-12.69z" color="#000" overflow="visible" fill="#a76f22" fill-rule="evenodd" enable-background="accumulate"></path><path d="M210.617 472.885c-46.733-.214-94.469 7.352-139.137 15.324-17.262 3.08-36.053 8.906-52.5 3.35-6.082-2.055-12.49-1.635-18.98-.606V512h512v-18.14a2329.86 2329.86 0 0 0-19.416-.247c4.118-4.33 3.098-8.193 3.262-12.164-9.256 5.067-35.425 8.536-53.268 12.201-30.14 6.192-62.339 9.12-94.242 1.23-18.384-4.545-36.688-3.99-55.08-13.92-8.058-4.35-24.838-2.814-39.729-.495 23.35 4.015 41.802 9.255 59.332 14.724-56.323.244-118.316 3.299-167.375-6.716 15.437-5.218 38.776-10.196 74.465-15.44a406.104 406.104 0 0 0-9.332-.148z" color="#000" overflow="visible" fill="#4a2b1d" fill-rule="evenodd" enable-background="accumulate"></path></svg><g class="" transform="translate(0,-9)" style=""><path d="M185.418 36.882s-24.67 5.747-35.756 15.557c-38.586 34.149-51.256 67.652-53.746 105.53l-43.97 47.023c96.221-17.906 207.672-21.92 340.581-20.912-21.002-14.144-41.37-25.753-59.322-36.814-14.473-35.496-33.701-76.597-65.934-95.373-14.145-8.24-29.144-14.024-43.962-16.83-10.736-20.307-35.4-11.819-37.89 1.82zM104.977 214.8c20.328 40.62 56.635 79.575 89.761 103.012 18.256 12.63 36.742 21.653 51.035 24.144 11.946 2.242 23.46-1.416 28.825-10.672l.002-.004v-.002c8.103-14.299 14.714-28.724 20.359-43.197 15.776 1.737 33.408 2.541 38.04-1.178 7.31-5.871-8.751-56.088-16.056-69.443C320 211.24 320 204.665 320 199.88c-39.436-2.194-150.638 6.423-215.023 14.92zm342.142 6.07c-13.335.302-24.897 9.857-33.428 22.668-9.413 14.137-16.138 33.34-18.798 55.055-2.66 21.714-.771 41.971 4.95 57.963 4.29 11.99 11.133 22.318 20.655 27.515l-10.77 108.676 17.913 1.775 10.615-107.13c12.015-1.592 22.443-10.62 30.299-22.418 9.413-14.137 16.136-33.339 18.797-55.053 2.66-21.714.77-41.974-4.952-57.965-5.721-15.991-15.983-29.026-31.087-30.877a29.036 29.036 0 0 0-4.194-.209zm2.004 18.076c5.494.673 11.846 6.541 16.33 19.075 4.485 12.533 6.397 30.421 4.033 49.71-2.363 19.29-8.538 36.186-15.916 47.266-7.377 11.08-14.955 15.242-20.449 14.568-5.494-.673-11.844-6.54-16.328-19.074-4.485-12.533-6.396-30.42-4.033-49.709 2.363-19.289 8.536-36.187 15.914-47.267 5.011-6.164 12.69-15.168 20.449-14.569zM99.172 242.53c-6.243 8.543-13.975 17.27-23.111 25.744-12.11 11.231-26.664 21.827-43.198 30.211 37.101 7.524 77.514 23.385 115.21 42.594 42.326 21.57 80.776 47.18 106.775 71.145l2.314-24.686c-11.388-12.634-23.526-23.83-35.869-34.252-12.152-5.001-24.557-12.203-36.797-20.672-36.371-25.164-70.878-60.916-85.324-90.084zm344.582 11.276c.036 21.503 3.015 45.534 9.771 64.632 6.729-19.745 7.02-55.246-9.771-64.632zm-137.598 54.43a353.014 353.014 0 0 1-7.74 16.574c7.33 5.423 11.536 10.592 13.904 15.505 3.119 6.47 3.49 13.077 2.176 21.295-2.24 14.002-10.213 31.472-14.32 52.23-9.049 12.67-1.565 56.042 18.265 60.938 44.677 11.03 69.71-35.7 59.614-46.716-9.817-10.713-37.598-19.736-57.92-19.952 4.048-14.733 9.79-28.985 12.136-43.656 1.666-10.412 1.325-21.456-3.736-31.955-4.255-8.827-11.576-16.856-22.379-24.264zm-272.875 8.81C28.53 324.342 23.344 332.53 18 341.459V494h255.152c-2.921-14.12-5.609-28.7-8.763-42.629-.65-5.674-5.269-9.093-9.059-13.314-21.957-24.459-66.328-55.92-115.432-80.942-35.16-17.917-72.94-32.625-106.617-40.07z" fill="#ffffff" fill-opacity="1" transform="translate(76.8, 76.8) scale(0.7, 0.7) rotate(0, 256, 256) skewX(0) skewY(0)" filter="url(#shadow-1)"></path></g></svg>